<?xml version="1.0" encoding="utf-8" ?>
<svg xmlns="http://www.w3.org/2000/svg" xmlns:xlink="http://www.w3.org/1999/xlink" width="1024" height="1024">
	<defs>
		<linearGradient id="goldGradient" x1="0%" y1="0%" x2="0%" y2="100%">
			<stop offset="0%" style="stop-color:#FFD700;stop-opacity:1" />
			<stop offset="100%" style="stop-color:#FFA500;stop-opacity:1" />
		</linearGradient>
	</defs>
	<path fill="url(#goldGradient)" d="M718.033 309.172C724.806 308.207 733.375 309.376 739.053 313.313C744.072 316.793 746.742 321.975 747.8 327.877C748.58 332.225 748.315 336.86 748.279 341.263C748.077 365.923 743.403 390.128 740.046 414.473Q725.912 517.961 707.291 620.736C702.983 645.877 699.161 671.045 694.411 696.113C692.476 706.324 690.755 716.676 688.18 726.743C685.847 735.859 682.339 745.228 676.928 752.995C671.528 760.744 664.284 766.701 654.758 768.259C643.285 770.135 630.264 765.044 620.212 759.994C608.246 753.982 597.4 745.245 586.576 737.417C578.462 731.549 570.086 725.885 561.771 720.305L493.135 674.081C480.926 665.946 468.035 658.493 456.227 649.8C445.759 642.092 437.963 635.151 435.994 621.722C434.695 612.862 439.479 606.289 444.638 599.601C447.52 595.866 450.97 592.675 454.233 589.285C463.255 579.913 472.629 571.161 482.092 562.247L562.837 486.073C568.199 480.96 573.964 476.296 579.375 471.248C582.142 468.666 584.617 465.741 587.278 463.045C595.823 454.389 604.735 445.499 611.897 435.626L612.434 434.879C612.481 432.248 612.621 429.612 612.723 426.983C611.338 425.501 609.759 424.519 608.067 423.429C599.585 424.749 596.147 425.167 588.885 430.175C578.582 434.44 560.211 448.151 550.055 454.638Q515.472 477.156 481.495 500.577L430.742 534.501C412.195 547.108 394.312 560.59 374.787 571.677C369.908 574.447 365.032 577.353 359.855 579.536C346.829 585.029 333.847 587.537 319.813 585.838C295.816 582.931 273.455 575.243 250.403 568.392C236.735 564.329 222.084 561.152 209.383 554.484C203.408 551.348 198.51 547.386 194.354 542.072C194.331 541.46 194.317 540.855 194.317 540.242C194.319 532.982 195.616 528.096 201.153 523.081C213.033 512.318 239.899 503.181 255.341 496.716C267.312 491.705 279.258 486.426 291.168 481.257L421.522 424.405C428.313 421.413 450.266 413.562 454.286 409.551L454.99 409.414C461.94 408.127 467.769 404.692 474.204 401.969L510.715 386.745C525.421 380.489 540.027 373.75 554.821 367.747C556.754 366.963 558.905 366.839 560.794 366.043C563.234 365.016 565.469 363.434 567.933 362.367C573.748 359.847 579.937 357.91 585.84 355.554C590.674 353.624 595.291 351.212 600.116 349.28C610.689 345.047 621.452 341.308 632.038 337.146C637.427 335.028 642.604 332.364 647.968 330.171C670.652 320.895 693.669 312.423 718.033 309.172Z"/>
</svg>
