<?xml version="1.0" encoding="utf-8" ?>
<svg xmlns="http://www.w3.org/2000/svg" xmlns:xlink="http://www.w3.org/1999/xlink" width="512" height="512">
	<defs>
		<linearGradient id="goldGradient" x1="0%" y1="0%" x2="0%" y2="100%">
			<stop offset="0%" style="stop-color:#FFD700;stop-opacity:1" />
			<stop offset="100%" style="stop-color:#FFA500;stop-opacity:1" />
		</linearGradient>
	</defs>
	<path fill="url(#goldGradient)" d="M177.127 170.34C180.825 172.153 187.864 178.071 191.797 180.718Q205.857 190.106 220.981 197.663C219.014 198.82 216.941 199.658 214.831 200.509C211.837 201.605 208.663 202.165 205.498 202.458C197.177 203.227 187.664 201.384 181.131 195.887C177.207 192.585 174.666 188.272 174.253 183.114C173.95 179.335 174.619 173.295 177.127 170.34Z"/>
	<path fill="url(#goldGradient)" d="M335.259 170.252C335.744 170.54 335.868 170.707 336.145 171.219C338.524 175.614 339.219 182.1 337.779 186.892C336.156 192.292 331.943 196.21 327.079 198.789C318.298 203.443 307.523 203.48 298.188 200.599C295.899 199.799 293.763 198.83 291.667 197.613C303.016 192.16 314.116 185.462 324.425 178.224C328.094 175.648 331.548 172.77 335.259 170.252Z"/>
	<path fill="url(#goldGradient)" d="M253.921 193.797C255.514 193.699 257.084 193.651 258.671 193.863C264.542 194.649 269.422 197.946 273.614 201.969C285.104 212.993 288.403 229.409 288.341 244.767C288.324 248.761 287.452 254.256 289.324 257.919C291.405 261.992 307.654 268.395 309.08 270.664C309.209 270.87 309.111 271.28 308.951 271.451C308.258 272.19 305.156 273.722 304.083 274.431Q301.686 276.018 299.412 277.776Q297.138 279.535 294.999 281.455Q292.86 283.375 290.866 285.446Q288.873 287.517 287.037 289.729C271.409 308.206 264.532 332.812 257.475 355.47C257.268 356.232 257.022 356.907 256.692 357.625C256.272 357.596 256.169 357.544 255.921 357.171C254.524 355.059 252.243 345.878 251.295 342.832C249.717 337.764 248.064 332.681 246.151 327.73C239.089 309.463 230.446 292.043 215.081 279.3C211.253 276.126 207.024 273.76 203.087 270.782C208.233 267.266 218.777 262.911 222.505 258.784C223.525 257.653 223.983 256.712 224.202 255.197C224.696 251.78 224.235 248.048 224.299 244.575C224.531 232.02 226.256 219.18 233.475 208.546C238.337 201.385 245.267 195.419 253.921 193.797Z"/>
	<path fill="url(#goldGradient)" d="M248.917 52.8948C249.321 52.8562 249.719 52.8199 250.125 52.8048Q251.609 52.7416 253.094 52.7103Q254.578 52.679 256.064 52.6796Q257.549 52.6802 259.034 52.7127Q260.518 52.7452 262.002 52.8095Q263.486 52.8739 264.968 52.9701Q266.45 53.0663 267.93 53.1943Q269.409 53.3222 270.886 53.482Q272.362 53.6417 273.835 53.8331Q275.308 54.0245 276.776 54.2474Q278.245 54.4704 279.708 54.7249Q281.171 54.9793 282.628 55.2651Q284.086 55.5509 285.537 55.8679Q286.988 56.185 288.431 56.5331Q289.875 56.8812 291.311 57.2602Q292.747 57.6392 294.175 58.049Q295.602 58.4587 297.021 58.8991Q298.439 59.3394 299.848 59.8101Q301.256 60.2807 302.654 60.7815Q304.053 61.2824 305.44 61.8131Q306.827 62.3438 308.202 62.9041Q309.578 63.4645 310.941 64.0543Q312.304 64.6441 313.654 65.263Q315.004 65.8819 316.34 66.5296Q317.677 67.1773 318.999 67.8536Q320.321 68.5299 321.629 69.2345Q322.936 69.939 324.228 70.6714Q325.52 71.4038 326.796 72.1638Q328.072 72.9238 329.331 73.711Q330.591 74.4983 331.833 75.3123Q333.075 76.1264 334.299 76.967Q335.524 77.8075 336.73 78.6742Q337.936 79.5408 339.123 80.4332C344.965 84.8338 350.278 89.8674 355.6 94.8694C367.445 92.0667 374.654 87.6308 383 78.7979C384.809 76.883 386.359 74.7511 388.179 72.8563L388.386 72.6438Q388.265 73.106 388.122 73.5616C385.73 81.2163 381.323 88.9075 377.001 95.6254C354.804 130.12 315.714 161.178 279.549 179.7C274.944 176.548 270.617 174.068 265.187 172.596C257.647 170.354 248.215 171.543 241.18 174.861C238.294 176.222 235.682 178.05 232.82 179.452C227.513 177.225 222.377 174.104 217.429 171.177C190.907 155.484 165.888 134.455 146.447 110.521C138.779 101.08 131.718 90.6379 126.893 79.4374C126.386 78.2618 125.314 76.352 125.445 75.0905C126.656 75.0193 131.21 80.5477 132.363 81.6418C140.514 89.3724 146.446 92.3835 157.162 94.9083C159.057 93.3981 160.768 91.4184 162.524 89.7307Q166.728 85.6957 171.321 82.1103C193.872 64.4531 220.35 54.7346 248.917 52.8948Z"/>
	<path fill="url(#goldGradient)" d="M375.327 127.654C377.243 128.774 380.019 135.586 381.076 137.926C389.137 155.767 393.404 173.8 394.171 193.37C394.396 199.114 394.256 204.903 394.255 210.65L394.285 245.263Q394.307 258.863 395.39 272.42Q396.473 285.977 398.61 299.408Q399.994 307.855 401.876 316.206Q403.758 324.556 406.131 332.781Q408.504 341.005 411.36 349.075Q414.217 357.144 417.546 365.03C420.349 371.653 423.739 377.982 426.681 384.535C422.092 382.095 414.702 375.185 410.393 371.659L380.379 347.482C379.378 349.613 377.944 351.644 376.704 353.649L369.85 364.724Q358.401 383.119 347.185 401.655C344.204 398.996 341.416 396.08 338.51 393.336C332.843 387.983 327.096 382.744 321.504 377.307C318.446 374.335 315.13 371.594 312.175 368.529C310.635 371.281 308.819 373.91 307.162 376.596L296.815 393.483Q276.457 426.331 256.433 459.383C253.568 455.311 251.097 450.913 248.521 446.655L238.247 429.9L200.481 368.534C192.435 375.641 184.716 383.323 176.958 390.751C173.348 394.208 169.625 398.451 165.482 401.236C162.09 396.221 159.084 390.932 155.888 385.79L132.194 347.612C128.357 350.407 124.711 353.504 121.006 356.471Q109.673 365.519 98.4876 374.748C94.1768 378.281 89.9063 382.145 85.3383 385.333C89.4592 377.284 93.4155 369.193 96.8455 360.819Q99.0602 355.261 101.053 349.62Q103.045 343.978 104.812 338.262Q106.579 332.546 108.118 326.764Q109.656 320.983 110.964 315.144Q112.272 309.306 113.348 303.421Q114.423 297.535 115.264 291.612Q116.105 285.688 116.71 279.736Q117.315 273.784 117.684 267.812C117.83 262.75 118.176 257.695 118.309 252.631Q118.58 239.543 118.517 226.452L118.527 203.02C118.536 197.264 118.453 191.397 118.919 185.657Q119.327 180.61 120.103 175.606Q120.879 170.603 122.019 165.669Q123.159 160.736 124.656 155.899Q126.154 151.062 128.001 146.347C130.529 139.84 133.423 133.205 137.126 127.273C138.391 129.461 140.115 131.509 141.634 133.526C147.198 140.912 153.235 147.691 159.418 154.551C158.184 157.403 156.683 160.137 155.471 163.003C152.477 170.078 150.899 178.243 151.766 185.918Q151.879 186.943 152.043 187.961Q152.208 188.978 152.422 189.987Q152.637 190.995 152.902 191.992Q153.167 192.988 153.481 193.97Q153.795 194.952 154.158 195.917Q154.521 196.882 154.932 197.828Q155.342 198.773 155.8 199.697Q156.257 200.621 156.76 201.521Q157.263 202.421 157.81 203.295Q158.357 204.169 158.947 205.014Q159.537 205.86 160.169 206.675Q160.8 207.49 161.472 208.272Q162.143 209.055 162.853 209.802Q163.562 210.55 164.308 211.262Q165.054 211.974 165.835 212.647Q166.616 213.32 167.429 213.954C175.812 220.606 185.99 224.334 196.63 225.166C198.844 225.339 201.166 225.534 203.374 225.289C202.385 232.055 202.202 238.767 201.454 245.534Q185.374 254.646 169.417 263.974C165.343 266.337 161.352 268.904 157.208 271.136C165.794 276.343 174.737 281.066 183.502 285.974C188.824 288.954 194.512 291.798 199.212 295.714C221.195 314.032 237.088 367.878 245.082 395.203C248.706 407.59 251.807 420.222 256.347 432.316C262.614 414.725 267.087 396.413 272.589 378.566C280.15 354.037 294.169 311.368 314.379 294.907C319.45 290.777 325.819 287.768 331.517 284.566C339.378 280.15 347.192 275.596 355.163 271.382C351.26 268.584 346.972 266.201 342.825 263.781L322.365 252.011C318.679 249.878 314.242 247.961 311.07 245.103C310.787 242.078 310.806 239.037 310.588 236.007C310.333 232.465 309.842 228.915 309.432 225.386C318.505 225.737 328.257 223.588 336.374 219.554C346.776 214.384 355.385 205.426 359.02 194.281C360.295 190.37 360.795 186.396 360.869 182.294C361.059 171.86 357.792 163.591 353.146 154.483C355.918 151.383 358.877 148.443 361.585 145.287Q368.805 136.743 375.327 127.654Z"/>
</svg>
