<?xml version="1.0" encoding="utf-8" ?>
<svg xmlns="http://www.w3.org/2000/svg" xmlns:xlink="http://www.w3.org/1999/xlink" width="512" height="512">
	<defs>
		<linearGradient id="goldGradient" x1="0%" y1="0%" x2="0%" y2="100%">
			<stop offset="0%" style="stop-color:#FFD700;stop-opacity:1" />
			<stop offset="100%" style="stop-color:#FFA500;stop-opacity:1" />
		</linearGradient>
	</defs>
	<path fill="url(#goldGradient)" d="M434.204 129.283C436.358 129.769 451.576 139.036 454.146 140.798C454.716 144.944 454.499 149.274 454.494 153.457C454.488 157.863 454.6 162.304 454.357 166.702C452.337 168.175 435.8 177.11 433.915 177.075C429.912 174.956 416.376 168.53 413.884 166.269C413.45 165.313 413.277 164.401 413.187 163.356C412.875 159.736 413.146 156.002 413.134 152.369C413.124 149.328 412.526 145.459 413.224 142.509C413.362 141.926 413.656 141.519 414.107 141.132C416.143 139.388 418.817 138.107 421.138 136.764L434.204 129.283Z"/>
	<path fill="url(#goldGradient)" d="M308.414 303.585L308.984 303.451C309.804 303.879 310.296 304.637 310.803 305.389C313.677 309.65 316.106 314.481 318.688 318.948L333.785 344.961C336.061 348.886 338.152 352.972 340.734 356.704C337.335 356.399 333.776 356.574 330.358 356.576L311.289 356.622C309.434 356.644 307.569 356.579 305.714 356.556C300.685 348.856 296.341 340.533 291.716 332.57L283.54 318.469C282.211 316.167 280.735 313.871 279.557 311.489C279.226 310.822 278.982 310.236 279.061 309.479C280.001 308.788 285.766 308.461 287.355 308.237C294.538 307.225 301.41 305.392 308.414 303.585Z"/>
	<path fill="url(#goldGradient)" d="M177.372 158.272C180.662 158.958 184.569 158.699 187.928 158.699L203.012 158.681L253.044 158.688C262.924 158.682 272.986 158.24 282.832 158.997C298.204 160.177 315.458 170.655 325.384 182.209C336.599 195.261 342.917 212.107 341.511 229.407C340.068 247.154 332.259 262.418 318.653 273.886C313.928 277.869 308.593 281.873 302.89 284.321C286.419 291.393 258.806 289.809 240.986 289.8L218.203 289.807C214.413 289.819 210.504 290.123 206.733 289.804C207.319 297.383 206.951 305.157 206.949 312.768Q206.853 335.649 207.039 358.528C206.987 358.699 206.85 358.833 206.749 358.981C203.658 359.31 200.244 359.02 197.121 359.019L177.043 359.018C176.7 344.644 176.94 330.217 176.94 315.837C176.941 297.225 176.783 278.597 177.014 259.987C180.082 259.761 183.218 259.917 186.296 259.922L203.05 259.927L255.91 259.94C264.104 259.949 272.699 260.459 280.838 259.671C289.483 258.834 297.097 253.317 302.428 246.752C308.802 238.904 311.107 229.181 309.973 219.256C308.935 210.179 304.805 202.533 297.602 196.896C292.221 192.685 284.882 189.88 278.165 188.832C273.397 188.088 268.174 188.595 263.329 188.589L232.988 188.577L196.022 188.576C189.894 188.576 183.093 188.072 177.054 188.814C176.916 185.347 176.365 160.012 177.372 158.272Z"/>
	<path fill="url(#goldGradient)" d="M256.005 27.958C259.652 29.2021 263.258 32.0189 266.642 33.9172L303.353 54.8847L372.472 94.4968C386.093 102.284 399.89 109.865 413.297 118.01C410.6 120.045 407.324 121.665 404.411 123.398C400.421 125.772 396.419 128.428 392.274 130.5C389.39 129.119 386.637 127.308 383.875 125.689L368.917 116.952L318.857 87.806L277.388 63.6754L265.112 56.5387C262.182 54.8347 259.184 53.2371 256.479 51.1847C249.229 54.9468 242.182 59.4344 235.111 63.5415L192.7 88.1818L79.425 153.992C79.9075 170.11 79.4832 186.374 79.4826 202.506L79.478 295.914L79.4802 337.671C79.4875 342.758 80.0569 352.998 79.1582 357.5C81.7019 359.469 84.9314 360.968 87.7289 362.576L104.229 372.099L162.251 405.709L226.194 442.766L245.374 453.897C248.925 455.978 252.55 458.485 256.311 460.134C261.043 457.79 265.654 454.684 270.251 452.05L301.635 434.032L381.156 388.589L420.436 366.088C422.948 364.654 431.302 360.477 432.808 359.02C433.266 358.576 433.192 358.334 433.228 357.727C432.517 352.133 432.985 345.974 432.985 340.319L432.99 307.522L433.011 199.688C436.028 197.305 439.697 195.458 443.029 193.535C446.726 191.402 450.408 189.141 454.198 187.182Q454.47 207.684 454.291 228.187L454.284 298.96L454.286 344.869C454.29 353.205 454.652 361.644 454.165 369.962C452.074 371.451 449.677 372.676 447.447 373.954L436.131 380.431L400.287 401.033L307.076 454.576L276.02 472.422C269.413 476.212 262.734 479.899 256.249 483.895L129.361 410.969L82.4272 384.005C74.4607 379.418 66.0732 375.105 58.423 370.028C57.7977 362.629 58.0942 355.082 58.0943 347.659L58.0955 311.913L58.0997 195.866C58.0992 189.89 57.695 143.142 58.2605 141.847C58.5578 141.166 59.5878 140.636 60.2128 140.247C65.5003 136.959 71.0243 133.995 76.4251 130.89L107.751 112.932L207.098 55.9867L240.175 37.02C245.436 34.0031 250.839 31.1243 256.005 27.958Z"/>
</svg>
